<?xml version="1.0" encoding="UTF-8"?>
<svg xmlns="http://www.w3.org/2000/svg" xmlns:xlink="http://www.w3.org/1999/xlink"
     width="1000" height="1000" viewBox="0 -1000 1000 1000">
<defs>
</defs>
<path d="M-1000000,-1000000 L-1000000,1000000 L1000000,1000000 L1000000,-1000000 Z" fill="#ffffff"/>
<path d="M340.0,-340.0 L340.0,-660.0 L340.0,-732.788883413888 L291.7666985697814,-732.788883413888 L226.9448712793858,-732.788883413888 L155.86642489909815,-732.788883413888 L155.86642489909815,-801.197575437721 L226.9448712793858,-801.197575437721 L291.7666985697814,-801.197575437721 L340.0,-801.197575437721 L340.0,-865.1344719145275 L660.0,-865.1344719145275 L660.0,-801.197575437721 L660.0,-732.788883413888 L660.0,-780.1007169965094 L720.3910700122508,-780.1007169965094 L720.3910700122508,-732.788883413888 L720.3910700122508,-660.0 L660.0,-660.0 L616.492671716367,-660.0 L616.492671716367,-735.7563837430525 L660.0,-735.7563837430525 L660.0,-791.559357514802 L730.5614179848831,-843.5009714330923 L730.5614179848831,-735.7563837430525 L730.5614179848831,-660.0 L730.5614179848831,-340.0 L730.5614179848831,-290.8065725528898 L660.0,-290.8065725528898 L660.0,-236.7088118105036 L581.7316274147622,-236.7088118105036 L581.7316274147622,-290.8065725528898 L581.7316274147622,-340.0 L660.0,-340.0 Z" fill="none" stroke="#000000" stroke-width="2" />
<path d="M660.0,-346.4 L340.0,-346.4 L340.0,-333.6 L660.0,-333.6 Z" fill="none" stroke="#000000" stroke-width="2" />
<path d="M660.0,-344.8 L340.0,-344.8 L340.0,-335.20000000000005 L660.0,-335.20000000000005 Z" fill="none" stroke="#000000" stroke-width="2" />
<path d="M660.0,-343.20000000000005 L340.0,-343.20000000000005 L340.0,-336.8 L660.0,-336.8 Z" fill="none" stroke="#000000" stroke-width="2" />
<path d="M660.0,-341.6 L340.0,-341.6 L340.0,-338.4 L660.0,-338.4 Z" fill="none" stroke="#000000" stroke-width="2" />
<path d="M346.4,-340.0 L346.4,-660.0 L333.6,-660.0 L333.6,-340.0 Z" fill="none" stroke="#000000" stroke-width="2" />
<path d="M344.8,-340.0 L344.8,-660.0 L335.20000000000005,-660.0 L335.20000000000005,-340.0 Z" fill="none" stroke="#000000" stroke-width="2" />
<path d="M343.20000000000005,-340.0 L343.20000000000005,-660.0 L336.8,-660.0 L336.8,-340.0 Z" fill="none" stroke="#000000" stroke-width="2" />
<path d="M341.6,-340.0 L341.6,-660.0 L338.4,-660.0 L338.4,-340.0 Z" fill="none" stroke="#000000" stroke-width="2" />
<path d="M346.4,-660.0 L346.4,-732.788883413888 L333.6,-732.788883413888 L333.6,-660.0 Z" fill="none" stroke="#000000" stroke-width="2" />
<path d="M344.8,-660.0 L344.8,-732.788883413888 L335.20000000000005,-732.788883413888 L335.20000000000005,-660.0 Z" fill="none" stroke="#000000" stroke-width="2" />
<path d="M343.20000000000005,-660.0 L343.20000000000005,-732.788883413888 L336.8,-732.788883413888 L336.8,-660.0 Z" fill="none" stroke="#000000" stroke-width="2" />
<path d="M341.6,-660.0 L341.6,-732.788883413888 L338.4,-732.788883413888 L338.4,-660.0 Z" fill="none" stroke="#000000" stroke-width="2" />
<path d="M162.26642489909815,-732.788883413888 L162.26642489909815,-801.197575437721 L149.46642489909817,-801.197575437721 L149.46642489909817,-732.788883413888 Z" fill="none" stroke="#000000" stroke-width="2" />
<path d="M160.66642489909816,-732.788883413888 L160.66642489909816,-801.197575437721 L151.06642489909817,-801.197575437721 L151.06642489909817,-732.788883413888 Z" fill="none" stroke="#000000" stroke-width="2" />
<path d="M159.06642489909817,-732.788883413888 L159.06642489909817,-801.197575437721 L152.66642489909816,-801.197575437721 L152.66642489909816,-732.788883413888 Z" fill="none" stroke="#000000" stroke-width="2" />
<path d="M157.46642489909817,-732.788883413888 L157.46642489909817,-801.197575437721 L154.26642489909815,-801.197575437721 L154.26642489909815,-732.788883413888 Z" fill="none" stroke="#000000" stroke-width="2" />
<path d="M616.492671716367,-729.3563837430526 L660.0,-729.3563837430526 L660.0,-742.1563837430526 L616.492671716367,-742.1563837430526 Z" fill="none" stroke="#000000" stroke-width="2" />
<path d="M616.492671716367,-730.9563837430526 L660.0,-730.9563837430526 L660.0,-740.5563837430526 L616.492671716367,-740.5563837430526 Z" fill="none" stroke="#000000" stroke-width="2" />
<path d="M616.492671716367,-732.5563837430526 L660.0,-732.5563837430526 L660.0,-738.9563837430526 L616.492671716367,-738.9563837430526 Z" fill="none" stroke="#000000" stroke-width="2" />
<path d="M616.492671716367,-734.1563837430526 L660.0,-734.1563837430526 L660.0,-737.3563837430526 L616.492671716367,-737.3563837430526 Z" fill="none" stroke="#000000" stroke-width="2" />
<path d="M653.6,-290.8065725528898 L653.6,-236.7088118105036 L666.4,-236.7088118105036 L666.4,-290.8065725528898 Z" fill="none" stroke="#000000" stroke-width="2" />
<path d="M655.2,-290.8065725528898 L655.2,-236.7088118105036 L664.8000000000001,-236.7088118105036 L664.8000000000001,-290.8065725528898 Z" fill="none" stroke="#000000" stroke-width="2" />
<path d="M656.8000000000001,-290.8065725528898 L656.8000000000001,-236.7088118105036 L663.2,-236.7088118105036 L663.2,-290.8065725528898 Z" fill="none" stroke="#000000" stroke-width="2" />
<path d="M658.4,-290.8065725528898 L658.4,-236.7088118105036 L661.6,-236.7088118105036 L661.6,-290.8065725528898 Z" fill="none" stroke="#000000" stroke-width="2" />
<path d="M588.1316274147623,-236.7088118105036 L588.1316274147623,-290.8065725528898 L575.3316274147624,-290.8065725528898 L575.3316274147624,-236.7088118105036 Z" fill="none" stroke="#000000" stroke-width="2" />
<path d="M586.5316274147623,-236.7088118105036 L586.5316274147623,-290.8065725528898 L576.9316274147623,-290.8065725528898 L576.9316274147623,-236.7088118105036 Z" fill="none" stroke="#000000" stroke-width="2" />
<path d="M584.9316274147623,-236.7088118105036 L584.9316274147623,-290.8065725528898 L578.5316274147623,-290.8065725528898 L578.5316274147623,-236.7088118105036 Z" fill="none" stroke="#000000" stroke-width="2" />
<path d="M583.3316274147624,-236.7088118105036 L583.3316274147624,-290.8065725528898 L580.1316274147623,-290.8065725528898 L580.1316274147623,-236.7088118105036 Z" fill="none" stroke="#000000" stroke-width="2" />
<path d="M588.1316274147623,-290.8065725528898 L588.1316274147623,-340.0 L575.3316274147624,-340.0 L575.3316274147624,-290.8065725528898 Z" fill="none" stroke="#000000" stroke-width="2" />
<path d="M586.5316274147623,-290.8065725528898 L586.5316274147623,-340.0 L576.9316274147623,-340.0 L576.9316274147623,-290.8065725528898 Z" fill="none" stroke="#000000" stroke-width="2" />
<path d="M584.9316274147623,-290.8065725528898 L584.9316274147623,-340.0 L578.5316274147623,-340.0 L578.5316274147623,-290.8065725528898 Z" fill="none" stroke="#000000" stroke-width="2" />
<path d="M583.3316274147624,-290.8065725528898 L583.3316274147624,-340.0 L580.1316274147623,-340.0 L580.1316274147623,-290.8065725528898 Z" fill="none" stroke="#000000" stroke-width="2" />
<circle cx="660.0" cy="-696.3944417069441" r="8.0" fill="none" stroke="#000000" stroke-width="2" />
<circle cx="340.0" cy="-766.9932294258045" r="8.0" fill="none" stroke="#000000" stroke-width="2" />
<circle cx="291.7666985697814" cy="-766.9932294258045" r="8.0" fill="none" stroke="#000000" stroke-width="2" />
<circle cx="226.9448712793858" cy="-766.9932294258045" r="8.0" fill="none" stroke="#000000" stroke-width="2" />
<path d="M660.0,-340.0 L730.5614179848831,-340.0" fill="none" stroke="#000000" stroke-width="2" />
<path d="M660.0,-360.0 L730.5614179848831,-360.0" fill="none" stroke="#000000" stroke-width="2" />
<path d="M660.0,-380.0 L730.5614179848831,-380.0" fill="none" stroke="#000000" stroke-width="2" />
<path d="M660.0,-400.0 L730.5614179848831,-400.0" fill="none" stroke="#000000" stroke-width="2" />
<path d="M660.0,-420.0 L730.5614179848831,-420.0" fill="none" stroke="#000000" stroke-width="2" />
<path d="M660.0,-440.0 L730.5614179848831,-440.0" fill="none" stroke="#000000" stroke-width="2" />
<path d="M660.0,-460.0 L730.5614179848831,-460.0" fill="none" stroke="#000000" stroke-width="2" />
<path d="M660.0,-480.0 L730.5614179848831,-480.0" fill="none" stroke="#000000" stroke-width="2" />
<path d="M660.0,-500.0 L730.5614179848831,-500.0" fill="none" stroke="#000000" stroke-width="2" />
<path d="M660.0,-520.0 L730.5614179848831,-520.0" fill="none" stroke="#000000" stroke-width="2" />
<path d="M660.0,-540.0 L730.5614179848831,-540.0" fill="none" stroke="#000000" stroke-width="2" />
<path d="M660.0,-560.0 L730.5614179848831,-560.0" fill="none" stroke="#000000" stroke-width="2" />
<path d="M660.0,-580.0 L730.5614179848831,-580.0" fill="none" stroke="#000000" stroke-width="2" />
<path d="M660.0,-600.0 L730.5614179848831,-600.0" fill="none" stroke="#000000" stroke-width="2" />
<path d="M660.0,-620.0 L730.5614179848831,-620.0" fill="none" stroke="#000000" stroke-width="2" />
<path d="M660.0,-640.0 L730.5614179848831,-640.0" fill="none" stroke="#000000" stroke-width="2" />
<path d="M660.0,-660.0 L730.5614179848831,-660.0" fill="none" stroke="#000000" stroke-width="2" />
<path d="M660.0,-660.0 L660.0,-732.788883413888" fill="none" stroke="#000000" stroke-width="2" />
<path d="M640.0,-660.0 L640.0,-732.788883413888" fill="none" stroke="#000000" stroke-width="2" />
<path d="M620.0,-660.0 L620.0,-732.788883413888" fill="none" stroke="#000000" stroke-width="2" />
<path d="M600.0,-660.0 L600.0,-732.788883413888" fill="none" stroke="#000000" stroke-width="2" />
<path d="M580.0,-660.0 L580.0,-732.788883413888" fill="none" stroke="#000000" stroke-width="2" />
<path d="M560.0,-660.0 L560.0,-732.788883413888" fill="none" stroke="#000000" stroke-width="2" />
<path d="M540.0,-660.0 L540.0,-732.788883413888" fill="none" stroke="#000000" stroke-width="2" />
<path d="M520.0,-660.0 L520.0,-732.788883413888" fill="none" stroke="#000000" stroke-width="2" />
<path d="M500.0,-660.0 L500.0,-732.788883413888" fill="none" stroke="#000000" stroke-width="2" />
<path d="M480.0,-660.0 L480.0,-732.788883413888" fill="none" stroke="#000000" stroke-width="2" />
<path d="M460.0,-660.0 L460.0,-732.788883413888" fill="none" stroke="#000000" stroke-width="2" />
<path d="M440.0,-660.0 L440.0,-732.788883413888" fill="none" stroke="#000000" stroke-width="2" />
<path d="M420.0,-660.0 L420.0,-732.788883413888" fill="none" stroke="#000000" stroke-width="2" />
<path d="M400.0,-660.0 L400.0,-732.788883413888" fill="none" stroke="#000000" stroke-width="2" />
<path d="M380.0,-660.0 L380.0,-732.788883413888" fill="none" stroke="#000000" stroke-width="2" />
<path d="M360.0,-660.0 L360.0,-732.788883413888" fill="none" stroke="#000000" stroke-width="2" />
<path d="M340.0,-660.0 L340.0,-732.788883413888" fill="none" stroke="#000000" stroke-width="2" />
<path d="M660.0,-290.8065725528898 L660.0,-340.0" fill="none" stroke="#000000" stroke-width="2" />
<path d="M633.9105424715875,-290.8065725528898 L633.9105424715875,-340.0" fill="none" stroke="#000000" stroke-width="2" />
<path d="M607.8210849431748,-290.8065725528898 L607.8210849431748,-340.0" fill="none" stroke="#000000" stroke-width="2" />
<path d="M581.7316274147622,-290.8065725528898 L581.7316274147622,-340.0" fill="none" stroke="#000000" stroke-width="2" />
<path d="M660.0,-735.7563837430525 L616.492671716367,-735.7563837430525" fill="none" stroke="#000000" stroke-width="2" />
<path d="M660.0,-710.5042558287017 L616.492671716367,-710.5042558287017" fill="none" stroke="#000000" stroke-width="2" />
<path d="M660.0,-685.2521279143509 L616.492671716367,-685.2521279143509" fill="none" stroke="#000000" stroke-width="2" />
<path d="M660.0,-660.0 L616.492671716367,-660.0" fill="none" stroke="#000000" stroke-width="2" />
<path d="M226.9448712793858,-732.788883413888 L226.9448712793858,-801.197575437721" fill="none" stroke="#000000" stroke-width="2" />
<path d="M203.25205581928992,-732.788883413888 L203.25205581928992,-801.197575437721" fill="none" stroke="#000000" stroke-width="2" />
<path d="M179.55924035919406,-732.788883413888 L179.55924035919406,-801.197575437721" fill="none" stroke="#000000" stroke-width="2" />
<path d="M155.86642489909815,-732.788883413888 L155.86642489909815,-801.197575437721" fill="none" stroke="#000000" stroke-width="2" />
<path d="M720.3910700122508,-732.788883413888 L720.3910700122508,-780.1007169965094" fill="none" stroke="#000000" stroke-width="2" />
<path d="M700.2607133415005,-732.788883413888 L700.2607133415005,-780.1007169965094" fill="none" stroke="#000000" stroke-width="2" />
<path d="M680.1303566707503,-732.788883413888 L680.1303566707503,-780.1007169965094" fill="none" stroke="#000000" stroke-width="2" />
<path d="M660.0,-732.788883413888 L660.0,-780.1007169965094" fill="none" stroke="#000000" stroke-width="2" />
</svg>